<svg width="3853" height="1953" xmlns="http://www.w3.org/2000/svg" xmlns:xlink="http://www.w3.org/1999/xlink" xml:space="preserve" overflow="hidden"><defs><clipPath id="clip0"><rect x="287" y="169" width="3853" height="1953"/></clipPath><linearGradient x1="1311" y1="1334" x2="1701" y2="1334" gradientUnits="userSpaceOnUse" spreadMethod="reflect" id="fill1"><stop offset="0" stop-color="#002484"/><stop offset="0.02" stop-color="#002485"/><stop offset="0.04" stop-color="#012587"/><stop offset="0.06" stop-color="#012689"/><stop offset="0.08" stop-color="#02278B"/><stop offset="0.1" stop-color="#03288D"/><stop offset="0.12" stop-color="#03298E"/><stop offset="0.14" stop-color="#042A90"/><stop offset="0.16" stop-color="#052B92"/><stop offset="0.18" stop-color="#052C93"/><stop offset="0.2" stop-color="#062C95"/><stop offset="0.22" stop-color="#062D96"/><stop offset="0.24" stop-color="#072E98"/><stop offset="0.26" stop-color="#072F9A"/><stop offset="0.28" stop-color="#082F9B"/><stop offset="0.3" stop-color="#08309C"/><stop offset="0.32" stop-color="#09319E"/><stop offset="0.34" stop-color="#09329F"/><stop offset="0.36" stop-color="#0A32A0"/><stop offset="0.38" stop-color="#0A33A2"/><stop offset="0.4" stop-color="#0B34A3"/><stop offset="0.42" stop-color="#0B34A4"/><stop offset="0.44" stop-color="#0B35A5"/><stop offset="0.46" stop-color="#0C35A6"/><stop offset="0.48" stop-color="#0C36A8"/><stop offset="0.5" stop-color="#0D36A9"/><stop offset="0.52" stop-color="#0D37AA"/><stop offset="0.54" stop-color="#0D37AB"/><stop offset="0.56" stop-color="#0E38AC"/><stop offset="0.58" stop-color="#0E38AC"/><stop offset="0.6" stop-color="#0E39AD"/><stop offset="0.62" stop-color="#0F39AE"/><stop offset="0.64" stop-color="#0F3AAF"/><stop offset="0.66" stop-color="#0F3AB0"/><stop offset="0.68" stop-color="#0F3AB0"/><stop offset="0.7" stop-color="#103BB1"/><stop offset="0.72" stop-color="#103BB2"/><stop offset="0.74" stop-color="#103BB2"/><stop offset="0.76" stop-color="#103CB3"/><stop offset="0.78" stop-color="#103CB4"/><stop offset="0.8" stop-color="#113CB4"/><stop offset="0.82" stop-color="#113CB4"/><stop offset="0.84" stop-color="#113DB5"/><stop offset="0.86" stop-color="#113DB5"/><stop offset="0.88" stop-color="#113DB6"/><stop offset="0.9" stop-color="#113DB6"/><stop offset="0.92" stop-color="#113DB6"/><stop offset="0.94" stop-color="#113DB6"/><stop offset="0.96" stop-color="#113DB6"/><stop offset="0.98" stop-color="#113DB6"/><stop offset="1" stop-color="#123EB7"/></linearGradient><linearGradient x1="2726" y1="1334" x2="3115" y2="1334" gradientUnits="userSpaceOnUse" spreadMethod="reflect" id="fill2"><stop offset="0" stop-color="#123EB7"/><stop offset="0.0140845" stop-color="#123FB8"/><stop offset="0.028169" stop-color="#1340BA"/><stop offset="0.0422535" stop-color="#1441BC"/><stop offset="0.056338" stop-color="#1542BE"/><stop offset="0.0704225" stop-color="#1643C0"/><stop offset="0.084507" stop-color="#1744C1"/><stop offset="0.0985916" stop-color="#1745C3"/><stop offset="0.112676" stop-color="#1846C5"/><stop offset="0.126761" stop-color="#1947C7"/><stop offset="0.140845" stop-color="#1A48C8"/><stop offset="0.15493" stop-color="#1A49CA"/><stop offset="0.169014" stop-color="#1B4ACC"/><stop offset="0.183099" stop-color="#1C4BCD"/><stop offset="0.197183" stop-color="#1D4CCF"/><stop offset="0.211268" stop-color="#1D4DD0"/><stop offset="0.225352" stop-color="#1E4ED2"/><stop offset="0.239437" stop-color="#1F4FD3"/><stop offset="0.253521" stop-color="#1F50D5"/><stop offset="0.267606" stop-color="#2051D6"/><stop offset="0.28169" stop-color="#2151D8"/><stop offset="0.295775" stop-color="#2152D9"/><stop offset="0.309859" stop-color="#2253DB"/><stop offset="0.323944" stop-color="#2354DC"/><stop offset="0.338028" stop-color="#2355DD"/><stop offset="0.352113" stop-color="#2455DF"/><stop offset="0.366197" stop-color="#2456E0"/><stop offset="0.380282" stop-color="#2557E1"/><stop offset="0.394366" stop-color="#2658E2"/><stop offset="0.408451" stop-color="#2658E4"/><stop offset="0.422535" stop-color="#2759E5"/><stop offset="0.43662" stop-color="#275AE6"/><stop offset="0.450704" stop-color="#285BE7"/><stop offset="0.464789" stop-color="#285BE8"/><stop offset="0.478873" stop-color="#295CE9"/><stop offset="0.492958" stop-color="#295CEA"/><stop offset="0.507042" stop-color="#2A5DEB"/><stop offset="0.521127" stop-color="#2A5EEC"/><stop offset="0.535211" stop-color="#2B5EED"/><stop offset="0.549296" stop-color="#2B5FEE"/><stop offset="0.56338" stop-color="#2C5FEF"/><stop offset="0.577465" stop-color="#2C60F0"/><stop offset="0.591549" stop-color="#2C60F1"/><stop offset="0.605634" stop-color="#2D61F2"/><stop offset="0.619718" stop-color="#2D61F3"/><stop offset="0.633803" stop-color="#2D62F4"/><stop offset="0.647887" stop-color="#2E62F4"/><stop offset="0.661972" stop-color="#2E63F5"/><stop offset="0.676056" stop-color="#2F63F6"/><stop offset="0.690141" stop-color="#2F64F6"/><stop offset="0.704225" stop-color="#2F64F7"/><stop offset="0.71831" stop-color="#2F65F8"/><stop offset="0.732394" stop-color="#3065F8"/><stop offset="0.746479" stop-color="#3065F9"/><stop offset="0.760563" stop-color="#3066FA"/><stop offset="0.774648" stop-color="#3066FA"/><stop offset="0.788732" stop-color="#3166FB"/><stop offset="0.802817" stop-color="#3166FB"/><stop offset="0.816901" stop-color="#3167FC"/><stop offset="0.830986" stop-color="#3167FC"/><stop offset="0.84507" stop-color="#3167FC"/><stop offset="0.859155" stop-color="#3267FD"/><stop offset="0.873239" stop-color="#3268FD"/><stop offset="0.887324" stop-color="#3268FD"/><stop offset="0.901408" stop-color="#3268FE"/><stop offset="0.915493" stop-color="#3268FE"/><stop offset="0.929577" stop-color="#3268FE"/><stop offset="0.943662" stop-color="#3268FE"/><stop offset="0.957747" stop-color="#3268FE"/><stop offset="0.971831" stop-color="#3268FE"/><stop offset="0.985915" stop-color="#3268FE"/><stop offset="1" stop-color="#3369FF"/></linearGradient></defs><g clip-path="url(#clip0)" transform="translate(-287 -169)"><path d="M287 717.67C287 623.411 363.411 547 457.67 547L1140.33 547C1234.59 547 1311 623.411 1311 717.67L1311 1951.33C1311 2045.59 1234.59 2122 1140.33 2122L457.67 2122C363.411 2122 287 2045.59 287 1951.33Z" fill="#002484" fill-rule="evenodd"/><text fill="#FFFFFF" font-family="FS Me Pro,FS Me Pro_MSFontService,sans-serif" font-weight="400" font-size="73" transform="matrix(1 0 0 1 574.772 708)">Mobility input</text><path d="M305 1407 399.5 1218 652.5 1218 747 1407 652.5 1596 399.5 1596Z" fill="#FFFFFF" fill-rule="evenodd"/><text fill="#002484" font-family="FS Me Pro,FS Me Pro_MSFontService,sans-serif" font-weight="700" font-size="37" transform="matrix(1 0 0 1 453.633 1359)">Vehicles<tspan font-family="Arial,Arial_MSFontService,sans-serif" font-weight="400" font-size="37" x="-80.7813" y="58">•</tspan><tspan font-weight="400" font-size="37" x="-18.9063" y="58">Consumption</tspan><tspan font-family="Arial,Arial_MSFontService,sans-serif" font-weight="400" font-size="37" x="-80.7813" y="116">•</tspan><tspan font-weight="400" font-size="37" x="-18.9063" y="116">Battery size</tspan></text><path d="M835 1407 929.5 1218 1183.5 1218 1278 1407 1183.5 1596 929.5 1596Z" fill="#FFFFFF" fill-rule="evenodd"/><text fill="#002484" font-family="FS Me Pro,FS Me Pro_MSFontService,sans-serif" font-weight="700" font-size="37" transform="matrix(1 0 0 1 973.667 1330)">Locations<tspan font-family="Arial,Arial_MSFontService,sans-serif" font-weight="400" font-size="37" x="-70.1708" y="58">•</tspan><tspan font-weight="400" font-size="37" x="-8.29584" y="58">Connectivity</tspan><tspan font-family="Arial,Arial_MSFontService,sans-serif" font-weight="400" font-size="37" x="-70.1708" y="116">•</tspan><tspan font-weight="400" font-size="37" x="-8.29584" y="116">Charger power</tspan><tspan font-family="Arial,Arial_MSFontService,sans-serif" font-weight="400" font-size="37" x="-70.1708" y="174">•</tspan><tspan font-weight="400" font-size="37" x="-8.29584" y="174">Coordinates</tspan></text><path d="M305 1852 399.5 1663 652.5 1663 747 1852 652.5 2041 399.5 2041Z" fill="#FFFFFF" fill-rule="evenodd"/><text fill="#002484" font-family="FS Me Pro,FS Me Pro_MSFontService,sans-serif" font-weight="700" font-size="37" transform="matrix(1 0 0 1 486.564 1746)">Legs<tspan font-family="Arial,Arial_MSFontService,sans-serif" font-weight="400" font-size="37" x="-113.713" y="58">•</tspan><tspan font-weight="400" font-size="37" x="-51.8375" y="58">Start location</tspan><tspan font-family="Arial,Arial_MSFontService,sans-serif" font-weight="400" font-size="37" x="-113.713" y="116">•</tspan><tspan font-weight="400" font-size="37" x="-51.8375" y="116">End location</tspan><tspan font-family="Arial,Arial_MSFontService,sans-serif" font-weight="400" font-size="37" x="-113.713" y="174">•</tspan><tspan font-weight="400" font-size="37" x="-51.8375" y="174">Distance</tspan><tspan font-family="Arial,Arial_MSFontService,sans-serif" font-weight="400" font-size="37" x="-113.713" y="231">•</tspan><tspan font-weight="400" font-size="37" x="-51.8375" y="231">Duration</tspan></text><path d="M835 1852 929.5 1663 1183.5 1663 1278 1852 1183.5 2041 929.5 2041Z" fill="#FFFFFF" fill-rule="evenodd"/><text fill="#002484" font-family="FS Me Pro,FS Me Pro_MSFontService,sans-serif" font-weight="700" font-size="37" transform="matrix(1 0 0 1 1014.64 1735)">Trips<tspan font-family="Arial,Arial_MSFontService,sans-serif" font-weight="400" font-size="37" x="-111.146" y="58">•</tspan><tspan font-weight="400" font-size="37" x="-49.2708" y="58">Included legs</tspan><tspan font-family="Arial,Arial_MSFontService,sans-serif" font-weight="400" font-size="37" x="-111.146" y="116">•</tspan><tspan font-weight="400" font-size="37" x="-49.2708" y="116">Start </tspan><tspan font-weight="400" font-size="37" x="-49.2708" y="155">distribution</tspan><tspan font-family="Arial,Arial_MSFontService,sans-serif" font-weight="400" font-size="37" x="-111.146" y="213">•</tspan><tspan font-weight="400" font-size="37" x="-49.2708" y="213">Probabilities </tspan><tspan font-weight="400" font-size="37" x="-49.2708" y="253">(computed)</tspan></text><path d="M305 962.5 399.25 774 652.75 774 747 962.5 652.75 1151 399.25 1151Z" fill="#FFFFFF" fill-rule="evenodd"/><text fill="#002484" font-family="FS Me Pro,FS Me Pro_MSFontService,sans-serif" font-weight="700" font-size="37" transform="matrix(1 0 0 1 445.612 875)">Statistics<tspan font-family="Arial,Arial_MSFontService,sans-serif" font-weight="400" font-size="37" x="-72.7604" y="58">•</tspan><tspan font-weight="400" font-size="37" x="-10.8854" y="58">Worked hours </tspan><tspan font-weight="400" font-size="37" x="-10.8854" y="97">per week</tspan><tspan font-family="Arial,Arial_MSFontService,sans-serif" font-weight="400" font-size="37" x="-72.7604" y="155">•</tspan><tspan font-weight="400" font-size="37" x="-10.8854" y="155">Worked hours </tspan><tspan font-weight="400" font-size="37" x="-10.8854" y="195">per year</tspan></text><path d="M835 962.5 929.25 774 1183.75 774 1278 962.5 1183.75 1151 929.25 1151Z" fill="#FFFFFF" fill-rule="evenodd"/><text fill="#002484" font-family="FS Me Pro,FS Me Pro_MSFontService,sans-serif" font-weight="700" font-size="37" transform="matrix(1 0 0 1 945.892 864)">Assumptions<tspan font-family="Arial,Arial_MSFontService,sans-serif" font-weight="400" font-size="37" x="-42.3958" y="58">•</tspan><tspan font-weight="400" font-size="37" x="19.4792" y="58">Activity </tspan><tspan font-weight="400" font-size="37" x="19.4792" y="97">(leisure, </tspan><tspan font-weight="400" font-size="37" x="19.4792" y="137">holidays) </tspan><tspan font-weight="400" font-size="37" x="19.4792" y="176">frequency and </tspan><tspan font-weight="400" font-size="37" x="19.4792" y="216">duration</tspan></text><path d="M747.5 960.208 798.312 960.208C799.577 960.208 800.603 961.234 800.603 962.5L800.603 1954.21 798.312 1951.92 925.046 1951.92C926.312 1951.92 927.338 1952.95 927.338 1954.21 927.338 1955.48 926.312 1956.5 925.046 1956.5L798.312 1956.5C797.046 1956.5 796.02 1955.48 796.02 1954.21L796.02 962.5 798.312 964.792 747.5 964.792C746.235 964.792 745.208 963.766 745.208 962.5 745.208 961.234 746.235 960.208 747.5 960.208ZM920.463 1940.46 947.963 1954.21 920.463 1967.96Z" fill="#82A7FF"/><path d="M835.5 964.792 799.232 964.792 801.523 962.5 801.523 1954.21 799.232 1951.92 925.036 1951.92C926.302 1951.92 927.328 1952.95 927.328 1954.21 927.328 1955.48 926.302 1956.5 925.036 1956.5L799.232 1956.5C797.966 1956.5 796.94 1955.48 796.94 1954.21L796.94 962.5C796.94 961.234 797.966 960.208 799.232 960.208L835.5 960.208C836.766 960.208 837.792 961.234 837.792 962.5 837.792 963.766 836.766 964.792 835.5 964.792ZM920.453 1940.46 947.953 1954.21 920.453 1967.96Z" fill="#82A7FF"/><rect x="948.5" y="1909.5" width="255" height="90.0001" stroke="#82A7FF" stroke-width="4.58333" stroke-miterlimit="8" fill="none"/><path d="M1701 717.837C1701 623.486 1777.49 547 1871.84 547L2555.16 547C2649.51 547 2726 623.486 2726 717.837L2726 1951.16C2726 2045.51 2649.51 2122 2555.16 2122L1871.84 2122C1777.49 2122 1701 2045.51 1701 1951.16Z" fill="#123EB7" fill-rule="evenodd"/><text fill="#FFFFFF" font-family="FS Me Pro,FS Me Pro_MSFontService,sans-serif" font-weight="400" font-size="73" transform="matrix(1 0 0 1 1963.8 708)">Mobility output</text><path d="M1719 1407 1813.5 1218 2066.5 1218 2161 1407 2066.5 1596 1813.5 1596Z" fill="#FFFFFF" fill-rule="evenodd"/><text fill="#123EB7" font-family="FS Me Pro,FS Me Pro_MSFontService,sans-serif" font-weight="700" font-size="37" transform="matrix(1 0 0 1 1863.86 1358)">Effective <tspan font-size="37" x="-2.29175" y="39">available </tspan><tspan font-size="37" x="-56.7188" y="79">charging power </tspan><tspan font-size="37" x="-26.3543" y="119">per location</tspan></text><path d="M2249 1407 2343.5 1218 2597.5 1218 2692 1407 2597.5 1596 2343.5 1596Z" fill="#FFFFFF" fill-rule="evenodd"/><text fill="#123EB7" font-family="FS Me Pro,FS Me Pro_MSFontService,sans-serif" font-weight="700" font-size="37" transform="matrix(1 0 0 1 2381.03 1397)">Consumed <tspan font-size="37" x="-50.1187" y="39">electricity so far</tspan></text><path d="M1719 1852 1813.5 1663 2066.5 1663 2161 1852 2066.5 2041 1813.5 2041Z" fill="#FFFFFF" fill-rule="evenodd"/><text fill="#123EB7" font-family="FS Me Pro,FS Me Pro_MSFontService,sans-serif" font-weight="700" font-size="37" transform="matrix(1 0 0 1 1797.69 1822)">Electricity needs <tspan font-size="37" x="28.9439" y="39">for </tspan><tspan font-size="37" x="87.3814" y="39">upcoming</tspan><tspan font-size="37" x="107.136" y="79">leg</tspan><tspan font-size="37" x="159.844" y="79">s</tspan></text><path d="M2249 1852 2343.5 1663 2597.5 1663 2692 1852 2597.5 2041 2343.5 2041Z" fill="#FFFFFF" fill-rule="evenodd"/><text fill="#123EB7" font-family="FS Me Pro,FS Me Pro_MSFontService,sans-serif" font-weight="700" font-size="37" transform="matrix(1 0 0 1 2334.64 1822)">Connectivity (% <tspan font-size="37" x="10.3125" y="39">and power) for </tspan><tspan font-size="37" x="11.1834" y="79">rest of the day</tspan></text><path d="M1719 962.5 1813.25 774 2066.75 774 2161 962.5 2066.75 1151 1813.25 1151Z" fill="#FFFFFF" fill-rule="evenodd"/><text fill="#123EB7" font-family="FS Me Pro,FS Me Pro_MSFontService,sans-serif" font-weight="700" font-size="37" transform="matrix(1 0 0 1 1806.28 953)">Parked vehicles <tspan font-size="37" x="31.2355" y="39">per location</tspan></text><path d="M2249 962.5 2343.25 774 2597.75 774 2692 962.5 2597.75 1151 2343.25 1151Z" fill="#FFFFFF" fill-rule="evenodd"/><text fill="#123EB7" font-family="FS Me Pro,FS Me Pro_MSFontService,sans-serif" font-weight="700" font-size="37" transform="matrix(1 0 0 1 2379.31 933)">Connected <tspan font-size="37" x="-11.1604" y="39">vehicles per </tspan><tspan font-size="37" x="21.4959" y="79">location</tspan></text><path d="M3115 717.837C3115 623.486 3191.49 547 3285.84 547L3969.16 547C4063.51 547 4140 623.486 4140 717.837L4140 1951.16C4140 2045.51 4063.51 2122 3969.16 2122L3285.84 2122C3191.49 2122 3115 2045.51 3115 1951.16Z" fill="#3369FF" fill-rule="evenodd"/><text fill="#FFFFFF" font-family="FS Me Pro,FS Me Pro_MSFontService,sans-serif" font-weight="400" font-size="73" transform="matrix(1 0 0 1 3347.95 708)">Charging profiles</text><path d="M3133 1407 3227.5 1218 3481.5 1218 3576 1407 3481.5 1596 3227.5 1596Z" fill="#FFFFFF" fill-rule="evenodd"/><text fill="#3369FF" font-family="FS Me Pro,FS Me Pro_MSFontService,sans-serif" font-weight="700" font-size="37" transform="matrix(1 0 0 1 3219.08 1358)">Drawn <tspan font-size="37" x="120.313" y="0">charging </tspan><tspan font-size="37" x="49.2708" y="39">power per </tspan><tspan font-size="37" x="44.6875" y="79">location in </tspan><tspan font-size="37" x="-8.021" y="119">reference profile</tspan></text><path d="M3664 1407 3758.5 1218 4011.5 1218 4106 1407 4011.5 1596 3758.5 1596Z" fill="#FFFFFF" fill-rule="evenodd"/><text fill="#3369FF" font-family="FS Me Pro,FS Me Pro_MSFontService,sans-serif" font-weight="700" font-size="37" transform="matrix(1 0 0 1 3749.73 1358)">Drawn<tspan font-size="37" x="120.313" y="0">charging</tspan><tspan font-size="37" x="49.2708" y="39">power</tspan><tspan font-size="37" x="165" y="39">per</tspan><tspan font-size="37" x="6.00415" y="79">charger</tspan><tspan font-size="37" x="146.942" y="79">type</tspan><tspan font-size="37" x="232.306" y="79">in</tspan><tspan font-size="37" x="-8.021" y="119">reference</tspan><tspan font-size="37" x="166.146" y="119">profil</tspan><tspan font-size="37" x="257.813" y="119">e</tspan></text><path d="M3133 1852 3227.5 1663 3481.5 1663 3576 1852 3481.5 2041 3227.5 2041Z" fill="#FFFFFF" fill-rule="evenodd"/><text fill="#3369FF" font-family="FS Me Pro,FS Me Pro_MSFontService,sans-serif" font-weight="700" font-size="37" transform="matrix(1 0 0 1 3208.2 1842)">Impact on (local) <tspan font-size="37" x="112.292" y="39">grid</tspan></text><path d="M3664 1852 3758.5 1663 4011.5 1663 4106 1852 4011.5 2041 3758.5 2041Z" fill="#FFFFFF" fill-rule="evenodd"/><text fill="#3369FF" font-family="FS Me Pro,FS Me Pro_MSFontService,sans-serif" font-weight="700" font-size="37" transform="matrix(1 0 0 1 3768.06 1763)">Mix reference <tspan font-size="37" x="23.7647" y="39">profile and </tspan><tspan font-size="37" x="-16.6145" y="79">dynamic profile </tspan><tspan font-size="37" x="-17.7605" y="119">(based on other </tspan><tspan font-size="37" x="-24.6355" y="158">ChaProEV</tspan><tspan font-size="37" x="150.677" y="158">inputs </tspan><tspan font-size="37" x="6.875" y="198">and outputs)</tspan></text><path d="M3133 962.5 3227.25 774 3481.75 774 3576 962.5 3481.75 1151 3227.25 1151Z" fill="#FFFFFF" fill-rule="evenodd"/><text fill="#3369FF" font-family="FS Me Pro,FS Me Pro_MSFontService,sans-serif" font-weight="700" font-size="37" transform="matrix(1 0 0 1 3277.52 817)">Charging<tspan font-size="37" x="-14.323" y="39">strategies:</tspan><tspan font-family="Arial,Arial_MSFontService,sans-serif" font-weight="400" font-size="37" x="-44.4126" y="97">•</tspan><tspan font-weight="400" font-size="37" x="17.4624" y="97">M</tspan><tspan font-weight="400" font-size="37" x="46.1082" y="97">ax power</tspan><tspan font-family="Arial,Arial_MSFontService,sans-serif" font-weight="400" font-size="37" x="-27.5" y="155">•</tspan><tspan font-weight="400" font-size="37" x="34.375" y="155">Adaptive</tspan><tspan font-family="Arial,Arial_MSFontService,sans-serif" font-weight="400" font-size="37" x="-19.2043" y="213">•</tspan><tspan font-weight="400" font-size="37" x="42.6707" y="213">Charger</tspan><tspan font-weight="400" font-size="37" x="12.604" y="253">modulation</tspan><tspan font-family="Arial,Arial_MSFontService,sans-serif" font-weight="400" font-size="37" x="28.3479" y="311">•</tspan><tspan font-weight="400" font-size="37" x="90.2229" y="311">….</tspan></text><path d="M3664 962.5 3758.25 774 4011.75 774 4106 962.5 4011.75 1151 3758.25 1151Z" fill="#FFFFFF" fill-rule="evenodd"/><text fill="#3369FF" font-family="FS Me Pro,FS Me Pro_MSFontService,sans-serif" font-weight="700" font-size="37" transform="matrix(1 0 0 1 3765.48 933)">Percentage<tspan font-size="37" x="203.958" y="0">of</tspan><tspan font-size="37" x="3.4375" y="39">fast</tspan><tspan font-size="37" x="71.0415" y="39">-</tspan><tspan font-size="37" x="85.3645" y="39">charging </tspan><tspan font-size="37" x="7.74561" y="79">station users</tspan></text><path d="M1311 1265.5 1564 1265.5 1564 1197 1701 1334 1564 1471 1564 1402.5 1311 1402.5Z" fill="url(#fill1)" fill-rule="evenodd"/><path d="M2726 1265.5 2978 1265.5 2978 1197 3115 1334 2978 1471 2978 1402.5 2726 1402.5Z" fill="url(#fill2)" fill-rule="evenodd"/><path d="M2039 219.668C2039 194.446 2059.45 174 2084.67 174L2156.67 174 2156.67 174 2333.17 174 2699.33 174C2724.55 174 2745 194.446 2745 219.668L2745 333.833 2745 333.833 2745 402.333 2745 402.332C2745 427.554 2724.55 448 2699.33 448L2333.17 448 2227.37 549.254 2156.67 448 2084.67 448C2059.45 448 2039 427.554 2039 402.332L2039 402.333 2039 333.833 2039 333.833Z" fill="#003DE5" fill-rule="evenodd"/><text fill="#FFFFFF" font-family="FS Me Pro,FS Me Pro_MSFontService,sans-serif" font-weight="400" font-size="55" transform="matrix(1 0 0 1 2181.75 237)">Can be (partially) <tspan font-size="55" x="-5.4541" y="59">replaced by more </tspan><tspan font-size="55" x="-5.72925" y="118">detailed model, if </tspan><tspan font-size="55" x="99.1145" y="178">available</tspan><tspan font-family="Arial,Arial_MSFontService,sans-serif" font-weight="700" font-size="55" x="1353.08" y="585">Inputs</tspan><tspan font-family="Arial,Arial_MSFontService,sans-serif" font-weight="700" font-size="55" x="1330.16" y="1036">Outputs</tspan><tspan font-family="Arial,Arial_MSFontService,sans-serif" font-weight="700" font-size="55" x="1315.55" y="1484">Analyses</tspan></text></g></svg>