<?xml version="1.0" encoding="UTF-8"?><svg id="Livello_1" xmlns="http://www.w3.org/2000/svg" width="876.0039" height="670.4854" xmlns:xlink="http://www.w3.org/1999/xlink" viewBox="0 0 876.0039 670.4854"><defs><clipPath id="clippath"><path d="m280.1178,393.4358H58.4953V-.5599s221.6226,0,221.6226,0v393.9957Zm263.0003,0h-221.6226V95.8684s221.6226,0,221.6226,0v297.5674Zm263.0003,0h-221.6226V-.5599s221.6226,0,221.6226,0v393.9957Z" style="fill:none;"/></clipPath></defs><g style="clip-path:url(#clippath);"><path d="m573.5636-40.0003H38.6599v446.7368h788.1856V-40.0003h-253.2819Z" style="fill:#1b4ac2;"/><path d="m432.3077,308.7806c-176.0287,0-319.2397-143.2063-319.2397-319.235s143.2111-319.2397,319.2397-319.2397S751.5474-186.483,751.5474-10.4544s-143.2111,319.235-319.2397,319.235Zm0-623.8954c-167.9892,0-304.6604,136.6713-304.6604,304.6604s136.6713,304.6557,304.6604,304.6557S736.9682,157.5348,736.9682-10.4544s-136.6713-304.6604-304.6604-304.6604Z" style="fill:#e7c82f;"/><g id="_Ripetizione_radiale_"><polygon points="410.8825 354.8677 402.8015 345.9966 452.3059 300.897 407.2053 251.3921 416.0764 243.3111 469.258 301.6861 410.8825 354.8677" style="fill:#e7c82f;"/></g><g id="_Ripetizione_radiale_-2"><polygon points="213.4914 212.6446 135.5163 200.1636 137.4128 188.314 203.5393 198.8985 214.1237 132.7725 225.9733 134.669 213.4914 212.6446" style="fill:#e7c82f;"/></g><g id="_Ripetizione_radiale_-3"><polygon points="691.5437 236.815 687.1481 169.9913 620.3249 174.3868 619.5373 162.4122 698.3347 157.2296 703.5178 236.0274 691.5437 236.815" style="fill:#e7c82f;"/></g></g><path d="m.4238,566.4464c0-44.3691,32.4697-68.6787,67.4893-68.6787,28.5596,0,51.6797,16.3193,60.8594,41.6494l-23.46,9.3496c-6.6289-15.6396-19.0391-27.1992-37.7393-27.1992-23.29,0-40.6299,17.8496-40.6299,46.0693,0,32.4697,22.7803,44.5391,42.5,44.5391,18.8691,0,33.6602-11.2197,40.2891-31.959l23.46,7.9893c-10.71,32.9805-35.1895,47.7695-64.0889,47.7695-39.7793,0-68.6797-27.709-68.6797-69.5293Z"/><path d="m146.623,497.087h23.7998v55.0801h.3398c6.9697-11.3896,17.5098-16.6602,29.0693-16.6602,17.3398,0,33.1504,11.9004,33.1504,37.7402v59.8389h-23.8008v-49.2998c0-12.5791-3.2295-25.499-17.8496-25.499-11.2188,0-20.9092,7.8193-20.9092,25.8389v48.96h-23.7998v-135.999Z"/><path d="m249.3027,608.2667c0-17.6807,14.1094-24.8203,30.5996-28.3896,21.4199-4.5908,28.2197-5.2705,28.2197-12.75,0-6.9707-5.9502-12.2402-15.1299-12.2402-8.3301,0-15.4697,4.4199-18.5293,15.1299l-22.2695-7.4795c5.9492-19.8906,23.2891-27.0303,41.6484-27.0303,23.4609,0,38.25,11.5596,38.25,33.6602v34.3389c0,15.4707,1.1895,22.1006,3.0605,29.5801h-23.6309c-1.3594-4.0801-1.8691-7.9902-1.8691-12.4102h-.3398c-4.9297,9.3506-15.8105,15.2998-28.2207,15.2998-16.1484,0-31.7891-9.0098-31.7891-27.709Zm38.7598,9.3496c12.5801,0,20.2295-10.54,20.2295-20.2295v-7.6504c-4.9297,2.04-13.2598,4.25-18.5303,5.2705-7.4795,1.8691-14.4492,5.4395-14.4492,12.5791,0,6.7998,5.4395,10.0303,12.75,10.0303Z"/><path d="m355.3828,500.4874h51.1689c10.71,0,46.0693,3.7402,46.0693,42.1592,0,39.0996-35.8691,43.6904-45.3896,43.6904h-26.5195v46.749h-25.3291v-132.5986Zm46.5791,61.3691c9.5195,0,24.1396-2.7197,24.1396-19.21,0-15.9795-14.4492-18.8691-23.7998-18.8691h-21.5898v38.0791h21.25Z"/><path d="m467.2412,538.2266h23.46v14.6201h.6797c4.7598-9.1797,13.7695-17.3398,26.6895-17.3398,2.8906,0,5.7793.3398,9.1797,1.7002v26.6895c-3.9102-1.3594-8.6699-1.8701-11.5586-1.8701-22.1006,0-24.6504,20.5703-24.6504,34.3398v36.7197h-23.7998v-94.8594Z"/><path d="m533.0312,585.8262c0-29.4092,20.0586-50.3193,48.959-50.3193s48.959,20.9102,48.959,50.3193c0,29.5801-20.0605,50.1494-48.959,50.1494s-48.959-20.5693-48.959-50.1494Zm48.959,27.3701c14.2793,0,24.1387-11.3896,24.1387-27.3701,0-16.3193-9.8594-27.5391-24.1387-27.5391s-24.3105,11.3896-24.3105,27.5391c0,15.9805,10.0312,27.3701,24.3105,27.3701Z"/><path d="m648.9707,500.4874h86.6992v23.29h-61.3691v29.749h57.9707v24.4805h-57.9707v31.6191h63.0703v23.46h-88.4004v-132.5986Z"/><path d="m745.5312,500.4874h26.5195c6.6289,16.6602,28.7305,74.7988,38.5898,101.6592h.3398c10.1992-26.8604,31.6191-84.999,38.0801-101.6592h26.5195l-50.1504,132.5986h-29.75l-50.1484-132.5986Z"/></svg>