<?xml version="1.0" encoding="UTF-8"?><svg id="Livello_1" xmlns="http://www.w3.org/2000/svg" width="730.8415" height="677.6364" viewBox="0 0 730.8415 677.6364"><rect x="27.9811" y="0" width="197.3116" height="350.7761" style="fill:#1b4ac2;"/><rect x="262.1315" y="46.3819" width="197.3116" height="304.3942" style="fill:#1b4ac2;"/><rect x="496.2818" y="0" width="197.3116" height="350.7761" style="fill:#1b4ac2;"/><path d="m0,477.2909h35.5356v21.1168h.517c9.7858-16.7409,27.038-25.2384,43.776-25.2384,17.5121,0,34.7643,8.7574,42.7477,26.2667h.5142c13.9074-19.8286,31.4195-26.2667,46.6123-26.2667,25.7498,0,50.7311,19.0574,50.7311,57.1693v90.6454h-36.0525v-74.6786c0-19.5715-4.8929-38.6289-25.4955-38.6289-15.707,0-30.6427,11.8452-30.6427,39.143v74.1644h-36.0525v-74.9357c0-19.5715-4.8929-38.3718-25.4955-38.3718-15.964,0-30.6427,11.8452-30.6427,39.143v74.1644H0v-143.6931Z" style="fill:#fff;"/><path d="m245.418,549.396c0-44.5501,30.3884-76.2267,74.1644-76.2267s74.1644,31.6766,74.1644,76.2267c0,44.8072-30.3856,75.9668-74.1644,75.9668s-74.1644-31.1596-74.1644-75.9668Zm74.1644,41.4595c21.6309,0,36.5667-17.255,36.5667-41.4595,0-24.7215-14.9357-41.7194-36.5667-41.7194s-36.8237,17.255-36.8237,41.7194c0,24.2045,15.1928,41.4595,36.8237,41.4595Z" style="fill:#fff;"/><path d="m420.0193,477.2909h35.5356v21.3739h.517c12.6164-17.7692,27.812-25.4955,46.3524-25.4955,39.143,0,62.5763,33.9931,62.5763,75.4526,0,48.1548-31.1596,76.7408-65.1527,76.7408-21.6309,0-35.7926-11.0739-43.776-22.9191v75.1928h-36.0525v-200.3454Zm71.5881,113.5646c21.1168,0,36.0525-17.5121,36.0525-41.4595,0-24.4644-15.1928-41.7194-36.0525-41.7194s-36.3096,17.255-36.3096,41.7194,15.4527,41.4595,36.3096,41.4595Z" style="fill:#fff;"/><path d="m582.5126,549.396c0-44.5501,30.3884-76.2267,74.1644-76.2267s74.1644,31.6766,74.1644,76.2267c0,44.8072-30.3856,75.9668-74.1644,75.9668s-74.1644-31.1596-74.1644-75.9668Zm74.1644,41.4595c21.6309,0,36.5695-17.255,36.5695-41.4595,0-24.7215-14.9385-41.7194-36.5695-41.7194s-36.8237,17.255-36.8237,41.7194c0,24.2045,15.1928,41.4595,36.8237,41.4595Z" style="fill:#fff;"/></svg>